# xmcd
#
# Track frame offsets: 
#        150
#        13292
#        26992
#        37887
#        51015
#        62967
#        76175
#        89025
#        101592
#        115285
#        128247
#        141697
#        153000
#        164960
#        177742
#        190747
#        202287
#        214982
#        226922
#        239437
#        252040
#        266372
#        279017
#        289842
#        301842
#        315287
#        328277
#
# Disc length: 4562 seconds
#
# Revision: 0
# Processed by: cddbd v1.5.2PL0 Copyright (c) Steve Scherf et al.
# Submitted via: ExactAudioCopy v1.0b3
#
DISCID=9611d01b
DTITLE=Sister Ernestine Washington - In Chronological Order 1943 - 194
DTITLE=8
DYEAR=1986
DGENRE=Gospel
TTITLE0=My Record Will Be There
TTITLE1=The Lord Is My Shepherd
TTITLE2=I Am Going Back To Jesus
TTITLE3=Come Thru The Water And The Flood
TTITLE4=If I Could Just Make It In (With The Dixie Hummingbirds)
TTITLE5=Savior Don't Pass Me By (With The Dixie Hummingbirds)
TTITLE6=Does Jesus Care? (With Bunk Johnson's Jazz Band)
TTITLE7=Does Jesus Care? (alternate take) (With Bunk Johnson's Jazz Ba
TTITLE7=nd)
TTITLE8=The Lord Will Make A Way Somehow (With Bunk Johnson's Jazz Ban
TTITLE8=d)
TTITLE9=Where Could I Go But To The Lord (With Bunk Johnson's Jazz Ban
TTITLE9=d)
TTITLE10=God's Amazing Grace (With Bunk Johnson's Jazz Band)
TTITLE11=O Lord, Remember Me
TTITLE12=Jesus Prayed For You And I
TTITLE13=The Uncloudy Day
TTITLE14=Never Turn Back No More
TTITLE15=The Lord Will Make A Way (With The Southern Sons)
TTITLE16=I Thank You Lord (With The Southern Sons)
TTITLE17=What Could I Do?
TTITLE18=God Shall Wipe All Tears Away
TTITLE19=The Wildest Creature (With Rev. Frederick D. Washington)
TTITLE20=Bound For Canaan Land
TTITLE21=I'm Gonna Live The Life I Sing About
TTITLE22=What Are You Raising Your Children For (With Rev. Frederick D
TTITLE22=Washington)
TTITLE23=Prayer Changes Things
TTITLE24=We Will Walk Through The Valley
TTITLE25=Each Day
TTITLE26=Jesus Is All The World To Me
EXTD=
EXTT0=
EXTT1=
EXTT2=
EXTT3=
EXTT4=
EXTT5=
EXTT6=
EXTT7=
EXTT8=
EXTT9=
EXTT10=
EXTT11=
EXTT12=
EXTT13=
EXTT14=
EXTT15=
EXTT16=
EXTT17=
EXTT18=
EXTT19=
EXTT20=
EXTT21=
EXTT22=
EXTT23=
EXTT24=
EXTT25=
EXTT26=
PLAYORDER=
